<svg width="47" height="49" viewBox="0 0 47 49" fill="none" xmlns="http://www.w3.org/2000/svg">
<path d="M12.7682 12.8373L5.28054 5.34967C5.03171 5.10084 5.03171 4.69738 5.28054 4.44855C5.52937 4.19986 5.93269 4.19986 6.18152 4.44855L13.6708 11.9379C14.3856 9.82762 13.0135 6.37041 10.2471 3.60418C8.02394 1.381 5.30077 0 3.14035 0C2.41054 0 1.79312 0.15832 1.30271 0.470859C0.0282159 2.4675 1.3831 6.36207 4.43616 9.41514C6.65921 11.6383 9.38238 13.0193 11.5429 13.0193C11.9959 13.0195 12.4054 12.9583 12.7682 12.8373Z" fill="#BE9D7B"/>
<path d="M40.9665 42.0475H10.3868C9.33295 42.0475 8.47559 42.9048 8.47559 43.9587C8.47559 45.0126 9.33295 45.8699 10.3868 45.8699H17.5039C18.8361 45.8699 20.0886 46.3886 21.0305 47.3307C21.7317 48.0321 22.6641 48.4183 23.656 48.4183H27.697C28.689 48.4183 29.6215 48.0321 30.3228 47.3307C31.2647 46.3886 32.5173 45.8699 33.8494 45.8699H40.9665C42.0205 45.8699 42.8777 45.0125 42.8777 43.9587C42.8779 42.9048 42.0205 42.0475 40.9665 42.0475Z" fill="#BE9D7B"/>
<path d="M28.2279 25.4833H10.3896C10.3064 25.4833 10.2272 25.4662 10.1542 25.4371C11.7756 34.2092 18.1207 40.7732 25.6795 40.7732C34.2899 40.7732 41.326 32.2567 41.5983 21.6608H9.76074C9.78439 22.578 9.85973 23.4791 9.98127 24.361C10.0921 24.2676 10.2334 24.2092 10.3896 24.2092H28.2279C28.5797 24.2092 28.8649 24.4944 28.8649 24.8462C28.8649 25.1981 28.5797 25.4833 28.2279 25.4833ZM32.0504 24.2092H33.3245C33.6763 24.2092 33.9615 24.4944 33.9615 24.8462C33.9615 25.1981 33.6763 25.4833 33.3245 25.4833H32.0504C31.6985 25.4833 31.4133 25.1981 31.4133 24.8462C31.4133 24.4944 31.6985 24.2092 32.0504 24.2092Z" fill="#BE9D7B"/>
<path d="M46.8347 25.6139C46.2021 24.7466 43.6912 25.1103 42.4949 25.4372C41.9248 28.6705 40.7303 31.6957 38.9834 34.2954C40.2591 34.0063 43.268 32.989 45.5344 29.5895C46.8095 27.6772 47.2832 26.2283 46.8347 25.6139Z" fill="#BE9D7B"/>
<path d="M19.6077 9.55621H37.446C38.4999 9.55621 39.3571 10.4136 39.3571 11.4674C39.3571 12.5212 38.4998 13.3786 37.446 13.3786H27.2526C24.5288 13.3786 22.2445 15.288 21.6634 17.8381H9.75098V20.3865H41.6049V17.8381H22.9796C23.5292 15.9983 25.2364 14.6527 27.2526 14.6527H37.446C39.2025 14.6527 40.6314 13.2238 40.6314 11.4673C40.6314 9.71084 39.2025 8.28185 37.446 8.28185H19.6077C18.5539 8.28185 17.6965 7.42449 17.6965 6.37066C17.6965 5.31683 18.5539 4.45947 19.6077 4.45947H27.2526C29.0092 4.45947 30.438 3.03062 30.438 1.27406C30.438 0.922281 30.1528 0.637085 29.8011 0.637085C29.4491 0.637085 29.1639 0.922281 29.1639 1.27406C29.1639 2.32789 28.3066 3.18525 27.2528 3.18525H19.6079C17.8514 3.18525 16.4224 4.61423 16.4224 6.37066C16.4223 8.12736 17.8513 9.55621 19.6077 9.55621Z" fill="#BE9D7B"/>
</svg>
